<?xml version="1.0" encoding="UTF-8" standalone="no"?><!DOCTYPE svg PUBLIC "-//W3C//DTD SVG 1.1//EN" "http://www.w3.org/Graphics/SVG/1.1/DTD/svg11.dtd"><svg width="100%" height="100%" viewBox="0 0 8349 823" version="1.1" xmlns="http://www.w3.org/2000/svg" xmlns:xlink="http://www.w3.org/1999/xlink" xml:space="preserve" xmlns:serif="http://www.serif.com/" style="fill-rule:evenodd;clip-rule:evenodd;stroke-linejoin:round;stroke-miterlimit:2;"><g><g><ellipse cx="1652.55" cy="630.582" rx="196.732" ry="192.116" style="fill:#fffafa;"/><ellipse cx="1316.32" cy="630.582" rx="196.732" ry="192.116" style="fill:#fffafa;"/><ellipse cx="1119.59" cy="630.582" rx="196.732" ry="192.116" style="fill:#fffafa;"/><ellipse cx="1598.9" cy="438.466" rx="196.732" ry="192.116" style="fill:#fffafa;"/><ellipse cx="1008.7" cy="374.081" rx="196.732" ry="192.116" style="fill:#fffafa;"/><ellipse cx="922.853" cy="566.197" rx="196.732" ry="192.116" style="fill:#fffafa;"/><ellipse cx="1205.43" cy="309.696" rx="196.732" ry="192.116" style="fill:#fffafa;"/><ellipse cx="1402.16" cy="374.081" rx="196.732" ry="192.116" style="fill:#fffafa;"/></g><g><g><ellipse cx="926.43" cy="573.351" rx="196.732" ry="192.116" style="fill:#fffafa;"/><ellipse cx="590.196" cy="573.351" rx="196.732" ry="192.116" style="fill:#fffafa;"/><ellipse cx="393.464" cy="573.351" rx="196.732" ry="192.116" style="fill:#fffafa;"/><ellipse cx="872.775" cy="381.235" rx="196.732" ry="192.116" style="fill:#fffafa;"/><ellipse cx="282.579" cy="316.85" rx="196.732" ry="192.116" style="fill:#fffafa;"/><ellipse cx="196.732" cy="508.966" rx="196.732" ry="192.116" style="fill:#fffafa;"/><ellipse cx="479.311" cy="252.465" rx="196.732" ry="192.116" style="fill:#fffafa;"/><ellipse cx="676.043" cy="316.85" rx="196.732" ry="192.116" style="fill:#fffafa;"/></g><g><ellipse cx="7193.24" cy="630.582" rx="196.732" ry="192.116" style="fill:#fffafa;"/><ellipse cx="6857.01" cy="630.582" rx="196.732" ry="192.116" style="fill:#fffafa;"/><ellipse cx="6660.28" cy="630.582" rx="196.732" ry="192.116" style="fill:#fffafa;"/><ellipse cx="7139.59" cy="438.466" rx="196.732" ry="192.116" style="fill:#fffafa;"/><ellipse cx="6549.39" cy="374.081" rx="196.732" ry="192.116" style="fill:#fffafa;"/><ellipse cx="6463.55" cy="566.197" rx="196.732" ry="192.116" style="fill:#fffafa;"/><ellipse cx="6746.12" cy="309.696" rx="196.732" ry="192.116" style="fill:#fffafa;"/><ellipse cx="6942.86" cy="374.081" rx="196.732" ry="192.116" style="fill:#fffafa;"/></g><g><path d="M2937,416.426c-108.574,1.048 -197.553,-84.182 -198.576,-190.209c-1.023,-106.027 86.295,-192.958 194.869,-194.005c108.575,-1.048 197.554,84.182 198.577,190.209c1.023,106.027 -86.296,192.958 -194.87,194.005Z" style="fill:#fffafa;"/><path d="M3273.22,413.182c-108.575,1.048 -197.554,-84.182 -198.577,-190.209c-1.023,-106.027 86.295,-192.957 194.87,-194.005c108.574,-1.047 197.553,84.183 198.576,190.209c1.023,106.027 -86.295,192.958 -194.869,194.005Z" style="fill:#fffafa;"/><path d="M3469.94,411.284c-108.575,1.048 -197.554,-84.182 -198.577,-190.209c-1.023,-106.026 86.295,-192.957 194.87,-194.005c108.574,-1.047 197.553,84.183 198.576,190.21c1.023,106.026 -86.295,192.957 -194.869,194.004Z" style="fill:#fffafa;"/><path d="M2992.5,608.016c-108.574,1.047 -197.553,-84.183 -198.576,-190.21c-1.023,-106.026 86.295,-192.957 194.869,-194.005c108.575,-1.047 197.554,84.183 198.577,190.21c1.023,106.026 -86.295,192.957 -194.87,194.005Z" style="fill:#fffafa;"/><path d="M3583.29,666.704c-108.574,1.047 -197.553,-84.182 -198.576,-190.209c-1.023,-106.027 86.295,-192.958 194.87,-194.005c108.574,-1.048 197.553,84.182 198.576,190.209c1.023,106.027 -86.295,192.957 -194.87,194.005Z" style="fill:#fffafa;"/><path d="M3667.28,473.769c-108.575,1.047 -197.554,-84.183 -198.577,-190.21c-1.023,-106.026 86.296,-192.957 194.87,-194.005c108.574,-1.047 197.553,84.183 198.576,190.21c1.023,106.026 -86.295,192.957 -194.869,194.005Z" style="fill:#fffafa;"/><path d="M3387.19,732.984c-108.574,1.047 -197.553,-84.182 -198.576,-190.209c-1.023,-106.027 86.295,-192.958 194.87,-194.005c108.574,-1.048 197.553,84.182 198.576,190.209c1.023,106.027 -86.295,192.957 -194.87,194.005Z" style="fill:#fffafa;"/><path d="M3189.85,670.5c-108.574,1.047 -197.553,-84.183 -198.576,-190.209c-1.023,-106.027 86.295,-192.958 194.87,-194.005c108.574,-1.048 197.553,84.182 198.576,190.209c1.023,106.027 -86.295,192.957 -194.87,194.005Z" style="fill:#fffafa;"/></g><g><ellipse cx="5283.15" cy="630.582" rx="196.732" ry="192.116" style="fill:#fffafa;"/><ellipse cx="4946.92" cy="630.582" rx="196.732" ry="192.116" style="fill:#fffafa;"/><ellipse cx="4750.19" cy="630.582" rx="196.732" ry="192.116" style="fill:#fffafa;"/><ellipse cx="5229.5" cy="438.466" rx="196.732" ry="192.116" style="fill:#fffafa;"/><ellipse cx="4639.3" cy="374.081" rx="196.732" ry="192.116" style="fill:#fffafa;"/><ellipse cx="4553.45" cy="566.197" rx="196.732" ry="192.116" style="fill:#fffafa;"/><ellipse cx="4836.03" cy="309.696" rx="196.732" ry="192.116" style="fill:#fffafa;"/><ellipse cx="5032.77" cy="374.081" rx="196.732" ry="192.116" style="fill:#fffafa;"/></g><g><path d="M5477.78,518.943c-108.501,4.14 -199.872,-78.521 -203.914,-184.476c-4.043,-105.955 80.764,-195.337 189.265,-199.477c108.5,-4.139 199.871,78.521 203.913,184.476c4.043,105.955 -80.764,195.337 -189.264,199.477Z" style="fill:#fffafa;"/><path d="M5813.77,506.124c-108.5,4.139 -199.871,-78.521 -203.913,-184.476c-4.043,-105.955 80.764,-195.337 189.264,-199.477c108.501,-4.14 199.871,78.521 203.914,184.476c4.042,105.955 -80.764,195.337 -189.265,199.477Z" style="fill:#fffafa;"/><path d="M6010.36,498.623c-108.5,4.14 -199.871,-78.521 -203.913,-184.476c-4.043,-105.954 80.764,-195.337 189.264,-199.476c108.501,-4.14 199.871,78.521 203.914,184.475c4.042,105.955 -80.764,195.338 -189.265,199.477Z" style="fill:#fffafa;"/><path d="M5538.72,708.874c-108.5,4.139 -199.871,-78.522 -203.913,-184.476c-4.043,-105.955 80.764,-195.337 189.264,-199.477c108.501,-4.14 199.871,78.521 203.914,184.476c4.042,105.954 -80.764,195.337 -189.265,199.477Z" style="fill:#fffafa;"/><path d="M6130.94,750.71c-108.5,4.14 -199.871,-78.521 -203.913,-184.475c-4.043,-105.955 80.764,-195.338 189.264,-199.477c108.501,-4.14 199.871,78.521 203.914,184.476c4.043,105.954 -80.764,195.337 -189.265,199.476Z" style="fill:#fffafa;"/><path d="M6209.4,555.461c-108.5,4.14 -199.871,-78.521 -203.913,-184.476c-4.043,-105.954 80.764,-195.337 189.264,-199.477c108.501,-4.139 199.871,78.522 203.914,184.476c4.042,105.955 -80.764,195.337 -189.265,199.477Z" style="fill:#fffafa;"/><path d="M5936.81,822.549c-108.501,4.14 -199.871,-78.521 -203.914,-184.476c-4.042,-105.954 80.764,-195.337 189.265,-199.477c108.5,-4.139 199.871,78.522 203.914,184.476c4.042,105.955 -80.765,195.338 -189.265,199.477Z" style="fill:#fffafa;"/><path d="M5737.76,765.711c-108.5,4.14 -199.871,-78.521 -203.913,-184.475c-4.043,-105.955 80.764,-195.338 189.264,-199.477c108.501,-4.14 199.871,78.521 203.914,184.476c4.042,105.954 -80.764,195.337 -189.265,199.476Z" style="fill:#fffafa;"/></g><g><ellipse cx="4446.15" cy="630.582" rx="196.732" ry="192.116" style="fill:#fffafa;"/><ellipse cx="4109.91" cy="630.582" rx="196.732" ry="192.116" style="fill:#fffafa;"/><ellipse cx="3913.18" cy="630.582" rx="196.732" ry="192.116" style="fill:#fffafa;"/><ellipse cx="4392.49" cy="438.466" rx="196.732" ry="192.116" style="fill:#fffafa;"/><ellipse cx="3802.3" cy="374.081" rx="196.732" ry="192.116" style="fill:#fffafa;"/><ellipse cx="3716.45" cy="566.197" rx="196.732" ry="192.116" style="fill:#fffafa;"/><ellipse cx="3999.03" cy="309.696" rx="196.732" ry="192.116" style="fill:#fffafa;"/><ellipse cx="4195.76" cy="374.081" rx="196.732" ry="192.116" style="fill:#fffafa;"/></g><g><ellipse cx="2922.37" cy="630.582" rx="196.732" ry="192.116" style="fill:#fffafa;"/><ellipse cx="2586.13" cy="630.582" rx="196.732" ry="192.116" style="fill:#fffafa;"/><ellipse cx="2389.4" cy="630.582" rx="196.732" ry="192.116" style="fill:#fffafa;"/><ellipse cx="2868.71" cy="438.466" rx="196.732" ry="192.116" style="fill:#fffafa;"/><ellipse cx="2278.52" cy="374.081" rx="196.732" ry="192.116" style="fill:#fffafa;"/><ellipse cx="2192.67" cy="566.197" rx="196.732" ry="192.116" style="fill:#fffafa;"/><ellipse cx="2475.25" cy="309.696" rx="196.732" ry="192.116" style="fill:#fffafa;"/><ellipse cx="2671.98" cy="374.081" rx="196.732" ry="192.116" style="fill:#fffafa;"/></g><g><ellipse cx="2214.13" cy="573.351" rx="196.732" ry="192.116" style="fill:#fffafa;"/><ellipse cx="1877.9" cy="573.351" rx="196.732" ry="192.116" style="fill:#fffafa;"/><ellipse cx="1681.17" cy="573.351" rx="196.732" ry="192.116" style="fill:#fffafa;"/><ellipse cx="2160.48" cy="381.235" rx="196.732" ry="192.116" style="fill:#fffafa;"/><ellipse cx="1570.28" cy="316.85" rx="196.732" ry="192.116" style="fill:#fffafa;"/><ellipse cx="1484.43" cy="508.966" rx="196.732" ry="192.116" style="fill:#fffafa;"/><ellipse cx="1767.01" cy="252.465" rx="196.732" ry="192.116" style="fill:#fffafa;"/><ellipse cx="1963.75" cy="316.85" rx="196.732" ry="192.116" style="fill:#fffafa;"/></g><g><ellipse cx="8151.86" cy="513.002" rx="196.732" ry="192.116" style="fill:#fffafa;"/><ellipse cx="7815.63" cy="513.002" rx="196.732" ry="192.116" style="fill:#fffafa;"/><ellipse cx="7618.9" cy="513.002" rx="196.732" ry="192.116" style="fill:#fffafa;"/><ellipse cx="8098.21" cy="320.886" rx="196.732" ry="192.116" style="fill:#fffafa;"/><ellipse cx="7508.01" cy="256.501" rx="196.732" ry="192.116" style="fill:#fffafa;"/><ellipse cx="7422.17" cy="448.617" rx="196.732" ry="192.116" style="fill:#fffafa;"/><ellipse cx="7704.75" cy="192.116" rx="196.732" ry="192.116" style="fill:#fffafa;"/><ellipse cx="7901.48" cy="256.501" rx="196.732" ry="192.116" style="fill:#fffafa;"/></g></g></g></svg>