<?xml version="1.0" encoding="UTF-8" standalone="no"?>
<!DOCTYPE svg PUBLIC "-//W3C//DTD SVG 1.1//EN" "http://www.w3.org/Graphics/SVG/1.1/DTD/svg11.dtd">
<svg width="100%" height="100%" viewBox="0 0 1124 706" version="1.1" xmlns="http://www.w3.org/2000/svg" xmlns:xlink="http://www.w3.org/1999/xlink" xml:space="preserve" xmlns:serif="http://www.serif.com/" style="fill-rule:evenodd;clip-rule:evenodd;stroke-linejoin:round;stroke-miterlimit:2;">
    <g transform="matrix(4.16667,0,0,4.16667,-1525.89,-1895.01)">
        <g transform="matrix(1,0,0,1,198.609,-128.241)">
            <g transform="matrix(1,0,0,1,107.308,77.0127)">
                <ellipse cx="282.64" cy="629.15" rx="47.216" ry="46.108" style="fill:rgb(255,250,250);"/>
            </g>
            <g transform="matrix(1,0,0,1,26.6125,77.0127)">
                <ellipse cx="282.64" cy="629.15" rx="47.216" ry="46.108" style="fill:rgb(255,250,250);"/>
            </g>
            <g transform="matrix(1,0,0,1,-20.6032,77.0127)">
                <ellipse cx="282.64" cy="629.15" rx="47.216" ry="46.108" style="fill:rgb(255,250,250);"/>
            </g>
            <g transform="matrix(1,0,0,1,94.4314,30.9048)">
                <ellipse cx="282.64" cy="629.15" rx="47.216" ry="46.108" style="fill:rgb(255,250,250);"/>
            </g>
            <g transform="matrix(1,0,0,1,-47.2157,15.4524)">
                <ellipse cx="282.64" cy="629.15" rx="47.216" ry="46.108" style="fill:rgb(255,250,250);"/>
            </g>
            <g transform="matrix(1,0,0,1,-67.8189,61.5603)">
                <ellipse cx="282.64" cy="629.15" rx="47.216" ry="46.108" style="fill:rgb(255,250,250);"/>
            </g>
            <ellipse cx="282.64" cy="629.15" rx="47.216" ry="46.108" style="fill:rgb(255,250,250);"/>
            <g transform="matrix(1,0,0,1,47.2157,15.4524)">
                <ellipse cx="282.64" cy="629.15" rx="47.216" ry="46.108" style="fill:rgb(255,250,250);"/>
            </g>
        </g>
    </g>
</svg>
